Coordinates
version=1
nRows=4
nColumns=63
inDegrees=yes

Units are S.I. units (second, meters, Newtons, ...)
If the header above contains a line with 'inDegrees', this indicates whether rotational values are in degrees (yes) or radians (no).

endheader
time	pelvis_tilt	pelvis_list	pelvis_rotation	pelvis_tx	pelvis_ty	pelvis_tz	hip_flexion_r	hip_adduction_r	hip_rotation_r	knee_angle_r	knee_angle_r_beta	ankle_angle_r	subtalar_angle_r	mtp_angle_r	hip_flexion_l	hip_adduction_l	hip_rotation_l	knee_angle_l	knee_angle_l_beta	ankle_angle_l	subtalar_angle_l	mtp_angle_l	L5_S1_Flex_Ext	L5_S1_Lat_Bending	L5_S1_axial_rotation	L4_L5_Flex_Ext	L4_L5_Lat_Bending	L4_L5_axial_rotation	L3_L4_Flex_Ext	L3_L4_Lat_Bending	L3_L4_axial_rotation	L2_L3_Flex_Ext	L2_L3_Lat_Bending	L2_L3_axial_rotation	L1_L2_Flex_Ext	L1_L2_Lat_Bending	L1_L2_axial_rotation	L1_T12_Flex_Ext	L1_T12_Lat_Bending	L1_T12_axial_rotation	Abs_r3	Abs_r2	Abs_r1	Abs_t1	Abs_t2	neck_flexion	neck_bending	neck_rotation	arm_flex_r	arm_add_r	arm_rot_r	elbow_flex_r	pro_sup_r	wrist_flex_r	wrist_dev_r	arm_flex_l	arm_add_l	arm_rot_l	elbow_flex_l	pro_sup_l	wrist_flex_l	wrist_dev_l
      4.10000000	    -10.01436944	    -36.75103686	     79.28308457	      0.20848660	      0.74252996	      0.76367141	     39.65309872	     -4.03444540	     -8.39961882	      3.53347951	      0.06167085	     23.00130273	     13.24621370	      0.00000000	     38.28596681	      0.73767429	     -5.92248462	      5.58039942	      0.09739634	     23.54430747	      2.89596371	      0.00000000	     -0.47027411	      1.65162149	     -6.03409510	     -0.87334604	      2.19665658	     -6.41122605	     -0.77261333	      4.01575248	     -6.41122605	     -0.53747628	      4.01575248	     -5.27983322	     -0.43669654	      3.36798653	     -4.90270227	     -0.26871462	      2.55836168	     -4.52557133	     -3.35912092	     18.68347257	    -33.55982673	      0.00000000	      0.00000000	      0.60184752	     -3.87565247	     39.37779865	     70.07510582	     45.24250776	    190.74537073	      0.08986438	      4.42438912	    -69.78896332	     33.87849644	    140.67423415	    -55.03986232	    200.08979833	      9.09465255	      4.25772752	    -11.48133428	     -6.40837518
      4.11666667	    -11.05546213	    -36.22056864	     77.73311121	      0.20970714	      0.74252238	      0.76516665	     39.61734796	     -4.18937811	     -7.13925155	      3.58067565	      0.06249458	     22.93002648	     12.97578091	      0.00000000	     37.66207020	      1.02783097	     -5.91606275	      5.10283504	      0.08906127	     22.89673871	      1.21335027	      0.00000000	     -0.56510155	      1.56951951	     -6.03096813	     -1.04945009	      2.08746095	     -6.40790364	     -0.92840533	      3.81612973	     -6.40790364	     -0.64585456	      3.81612973	     -5.27709712	     -0.52475330	      3.20056418	     -4.90016161	     -0.32289902	      2.43118572	     -4.52322610	     -4.03646385	     17.75471859	    -33.54243547	      0.00000000	      0.00000000	     -0.18694160	     -4.33006211	     37.62676531	     69.04795343	     45.18722843	    193.59826203	      0.08846808	      8.06236016	    -69.80520784	     33.91270538	    141.47469339	    -55.76092998	    202.63394747	      8.76800706	      4.25886557	    -11.45008591	     -9.42273916
      4.13333333	    -12.43314322	    -35.46780506	     75.76221142	      0.21163946	      0.74279845	      0.76751130	     39.67833678	     -4.47199024	     -5.66918570	      3.92751678	      0.06854810	     22.79874974	     12.59783954	      0.00000000	     36.96854184	      1.43414837	     -6.31444444	      4.70446398	      0.08210839	     22.02041986	     -0.38642685	      0.00000000	     -0.66869490	      1.42632137	     -5.98130152	     -1.24183329	      1.89700742	     -6.35513287	     -1.09859885	      3.46795777	     -6.35513287	     -0.76425140	      3.46795777	     -5.23363883	     -0.62095008	      2.90855453	     -4.85980749	     -0.38209226	      2.20937180	     -4.48597614	     -4.77642079	     16.13483256	    -33.26620468	      0.00000000	      0.00000000	     -1.15028070	     -4.11853054	     36.46204118	     67.61449798	     45.08523491	    195.85204687	      0.08923505	     12.30095409	    -69.81545232	     34.03910270	    141.99624461	    -56.20416840	    207.63032536	      7.88177505	      4.00580696	    -10.99427224	    -12.51404490
      4.15000000	    -14.00108897	    -34.69178343	     73.48293240	      0.21392310	      0.74301441	      0.77058337	     39.98634099	     -4.77041682	     -4.11199087	      4.51547317	      0.07880987	     22.60248516	     12.25753470	      0.00000000	     36.41649405	      1.84975613	     -7.29977032	      4.40439478	      0.07687119	     21.18031820	     -1.42747354	      0.00000000	     -0.75998616	      1.25285922	     -5.87303316	     -1.41137030	      1.66630276	     -6.24009774	     -1.24858126	      3.04620190	     -6.24009774	     -0.86858818	      3.04620190	     -5.13890402	     -0.70572315	      2.55483051	     -4.77183945	     -0.43425609	      1.94067892	     -4.40477487	     -5.42850514	     14.17259402	    -32.66404855	      0.00000000	      0.00000000	     -2.02663597	     -3.35946927	     36.14536984	     66.26116273	     45.05100056	    197.41496128	      0.09122044	     15.54745891	    -69.81997776	     34.14892624	    142.19872064	    -56.58069153	    213.78758252	      6.46841452	      3.46380901	    -10.24200722	    -15.21452704
